<svg width="522" height="191" viewBox="0 0 522 191" fill="none" xmlns="http://www.w3.org/2000/svg">
<path d="M87.1923 94.9924C87.1923 94.9924 100.96 116.546 152.575 113.11C152.575 113.11 159.475 113.755 163.544 123.569C163.544 123.569 173.658 145.011 140.568 157.869C140.578 157.879 43.042 162.111 87.1923 94.9924Z" fill="url(#paint0_linear_1_163)"/>
<mask id="mask0_1_163" style="mask-type:alpha" maskUnits="userSpaceOnUse" x="75" y="94" width="90" height="64">
<path d="M87.1923 94.9924C87.1923 94.9924 100.96 116.546 152.575 113.11C152.575 113.11 159.475 113.755 163.544 123.569C163.544 123.569 173.658 145.011 140.568 157.869C140.578 157.879 43.042 162.111 87.1923 94.9924Z" fill="url(#paint1_linear_1_163)"/>
</mask>
<g mask="url(#mask0_1_163)">
<g filter="url(#filter0_f_1_163)">
<path fill-rule="evenodd" clip-rule="evenodd" d="M86.6945 120.375C93.383 154.685 144.302 158.625 144.302 158.625C105.38 174.062 78.1223 150.906 78.1223 150.906C78.1223 150.906 60.3872 138.17 53.1853 116.122C53.0166 116.36 52.8477 116.598 52.6784 116.838C51.5603 113.745 50.281 109.412 49.6162 104.132C48.4175 94.4991 49.9385 87.0627 50.7746 83.1632C51.7819 78.4475 54.3606 66.9706 63.366 55.4231C63.366 55.4231 71.4849 45.0042 84.3482 37.7593C87.7428 35.8549 91.2483 34.3434 91.2483 34.3434C93.2226 33.497 94.8746 32.9025 95.5495 32.6708C95.5495 32.6708 96.8388 32.2173 98.0677 31.8344C102.137 30.5749 107.647 29.7386 108.715 29.5874C108.715 29.5874 108.756 29.6025 108.835 29.6324C152.887 26.1013 156.995 47.1403 156.995 47.1403C160.762 70.6383 119.613 78.8707 119.613 78.8707C119.613 78.8707 80.006 86.0652 86.6945 120.375Z" fill="black" fill-opacity="0.3"/>
</g>
</g>
<path fill-rule="evenodd" clip-rule="evenodd" d="M82.8995 119.346C89.6104 153.733 140.7 157.682 140.7 157.682C101.648 173.153 74.2987 149.946 74.2987 149.946C74.2987 149.946 56.8888 137.457 49.5175 115.8C49.5172 115.8 49.517 115.8 49.5168 115.801C48.3949 112.7 47.1114 108.358 46.4443 103.066C45.2416 93.4111 46.7678 85.958 47.6066 82.0497C48.6173 77.3233 51.2046 65.8204 60.2401 54.2469C60.2401 54.2469 66.3446 46.4214 76.3573 39.6085C90.8788 29.6929 104.922 28.4134 104.922 28.4134C149.301 24.798 153.434 45.9454 153.434 45.9454C157.214 69.4965 115.928 77.7474 115.928 77.7474C115.928 77.7474 76.1886 84.9582 82.8995 119.346Z" fill="url(#paint2_linear_1_163)"/>
<path d="M211.387 94.28C211.387 90.9433 211.977 87.658 213.158 84.424C214.39 81.19 216.161 78.264 218.471 75.646C220.781 73.028 223.604 70.949 226.941 69.409C230.278 67.8177 234.076 67.022 238.337 67.022C243.316 67.022 247.654 68.1257 251.35 70.333C255.046 72.5403 257.792 75.415 259.589 78.957L251.427 84.578C250.503 82.5247 249.297 80.9077 247.808 79.727C246.319 78.5463 244.702 77.6993 242.957 77.186C241.263 76.6727 239.62 76.416 238.029 76.416C235.36 76.416 233.024 76.955 231.022 78.033C229.071 79.111 227.429 80.5227 226.094 82.268C224.759 84.0133 223.758 85.964 223.091 88.12C222.475 90.276 222.167 92.432 222.167 94.588C222.167 97.822 222.834 100.851 224.169 103.674C225.504 106.446 227.377 108.705 229.79 110.45C232.203 112.195 235 113.068 238.183 113.068C239.826 113.068 241.52 112.786 243.265 112.221C245.062 111.656 246.704 110.758 248.193 109.526C249.682 108.294 250.837 106.703 251.658 104.752L260.359 109.757C259.23 112.478 257.459 114.788 255.046 116.687C252.633 118.535 249.913 119.972 246.884 120.999C243.855 121.974 240.852 122.462 237.875 122.462C233.974 122.462 230.406 121.666 227.172 120.075C223.989 118.432 221.217 116.276 218.856 113.607C216.495 110.886 214.647 107.858 213.312 104.521C212.029 101.133 211.387 97.7193 211.387 94.28ZM284.968 122.77C280.553 122.77 276.754 121.82 273.572 119.921C270.44 117.97 268.028 115.404 266.334 112.221C264.64 109.038 263.793 105.599 263.793 101.903C263.793 98.1557 264.64 94.6907 266.334 91.508C268.079 88.3253 270.517 85.7843 273.649 83.885C276.831 81.9343 280.604 80.959 284.968 80.959C289.331 80.959 293.078 81.9343 296.21 83.885C299.392 85.7843 301.831 88.3253 303.525 91.508C305.219 94.6907 306.066 98.1557 306.066 101.903C306.066 105.599 305.219 109.038 303.525 112.221C301.831 115.404 299.392 117.97 296.21 119.921C293.078 121.82 289.331 122.77 284.968 122.77ZM274.419 101.903C274.419 104.264 274.881 106.369 275.805 108.217C276.729 110.014 277.986 111.425 279.578 112.452C281.169 113.479 282.966 113.992 284.968 113.992C286.918 113.992 288.689 113.479 290.281 112.452C291.872 111.374 293.13 109.937 294.054 108.14C295.029 106.292 295.517 104.187 295.517 101.826C295.517 99.516 295.029 97.4627 294.054 95.666C293.13 93.818 291.872 92.3807 290.281 91.354C288.689 90.276 286.918 89.737 284.968 89.737C282.966 89.737 281.169 90.276 279.578 91.354C277.986 92.3807 276.729 93.818 275.805 95.666C274.881 97.4627 274.419 99.5417 274.419 101.903ZM310.566 101.826C310.566 97.976 311.336 94.4597 312.876 91.277C314.416 88.0943 316.546 85.579 319.267 83.731C321.988 81.883 325.093 80.959 328.584 80.959C331.561 80.959 334.231 81.7033 336.592 83.192C339.005 84.6293 340.878 86.4773 342.213 88.736V65.79H352.531V110.45C352.531 111.579 352.711 112.375 353.07 112.837C353.429 113.248 354.045 113.504 354.918 113.607V122C353.07 122.359 351.607 122.539 350.529 122.539C348.681 122.539 347.141 122.077 345.909 121.153C344.728 120.229 344.061 119.023 343.907 117.534L343.753 114.993C342.264 117.508 340.237 119.433 337.67 120.768C335.155 122.103 332.511 122.77 329.739 122.77C325.992 122.77 322.681 121.846 319.806 119.998C316.931 118.099 314.673 115.583 313.03 112.452C311.387 109.269 310.566 105.727 310.566 101.826ZM342.213 107.216V97.591C341.392 95.3323 339.98 93.4587 337.978 91.97C335.976 90.4813 333.923 89.737 331.818 89.737C329.713 89.737 327.865 90.3273 326.274 91.508C324.683 92.6373 323.451 94.1517 322.578 96.051C321.705 97.899 321.269 99.901 321.269 102.057C321.269 104.264 321.757 106.292 322.732 108.14C323.707 109.937 325.016 111.374 326.659 112.452C328.353 113.479 330.278 113.992 332.434 113.992C334.385 113.992 336.31 113.35 338.209 112.067C340.16 110.784 341.494 109.167 342.213 107.216ZM381.37 122.77C377.007 122.77 373.234 121.82 370.051 119.921C366.92 118.022 364.481 115.506 362.736 112.375C360.991 109.192 360.118 105.753 360.118 102.057C360.118 98.2583 360.965 94.7677 362.659 91.585C364.404 88.351 366.868 85.7843 370.051 83.885C373.234 81.9343 377.032 80.959 381.447 80.959C385.862 80.959 389.635 81.9343 392.766 83.885C395.897 85.7843 398.284 88.3253 399.927 91.508C401.621 94.6393 402.468 98.0273 402.468 101.672C402.468 103.007 402.391 104.162 402.237 105.137H371.052C371.309 108.268 372.464 110.732 374.517 112.529C376.622 114.326 379.034 115.224 381.755 115.224C383.808 115.224 385.733 114.736 387.53 113.761C389.378 112.734 390.636 111.4 391.303 109.757L400.158 112.221C398.669 115.301 396.282 117.842 392.997 119.844C389.712 121.795 385.836 122.77 381.37 122.77ZM370.821 98.592H391.919C391.611 95.5633 390.456 93.125 388.454 91.277C386.503 89.3777 384.116 88.428 381.293 88.428C378.521 88.428 376.134 89.3777 374.132 91.277C372.181 93.125 371.078 95.5633 370.821 98.592ZM432.778 90.584C429.646 90.584 426.849 91.2 424.385 92.432C421.921 93.6127 420.15 95.3323 419.072 97.591V122H408.754V81.652H418.225V90.276C419.611 87.504 421.407 85.3223 423.615 83.731C425.873 82.1397 428.235 81.267 430.699 81.113C431.777 81.113 432.47 81.1387 432.778 81.19V90.584ZM439.378 129.854C441.277 130.367 442.817 130.624 443.998 130.624C445.384 130.624 446.488 130.034 447.309 128.853C448.182 127.724 449.157 125.439 450.235 122L434.296 81.652H444.999L455.856 111.451L465.404 81.652H475.26L458.32 130.008C457.396 132.78 455.728 135.064 453.315 136.861C450.954 138.709 448.028 139.633 444.537 139.633C442.843 139.633 441.123 139.351 439.378 138.786V129.854Z" fill="#343C44"/>
<defs>
<filter id="filter0_f_1_163" x="45.1729" y="25.2329" width="116.065" height="142.698" filterUnits="userSpaceOnUse" color-interpolation-filters="sRGB">
<feFlood flood-opacity="0" result="BackgroundImageFix"/>
<feBlend mode="normal" in="SourceGraphic" in2="BackgroundImageFix" result="shape"/>
<feGaussianBlur stdDeviation="2" result="effect1_foregroundBlur_1_163"/>
</filter>
<linearGradient id="paint0_linear_1_163" x1="76.0081" y1="126.463" x2="165.006" y2="126.463" gradientUnits="userSpaceOnUse">
<stop stop-color="#D14609"/>
<stop offset="0.989" stop-color="#FB7703"/>
</linearGradient>
<linearGradient id="paint1_linear_1_163" x1="76.0081" y1="126.463" x2="165.006" y2="126.463" gradientUnits="userSpaceOnUse">
<stop stop-color="#D14609"/>
<stop offset="0.989" stop-color="#FB7703"/>
</linearGradient>
<linearGradient id="paint2_linear_1_163" x1="45.9996" y1="111.822" x2="113.543" y2="24.3323" gradientUnits="userSpaceOnUse">
<stop offset="0.163491" stop-color="#274351"/>
<stop offset="1" stop-color="#11252D"/>
</linearGradient>
</defs>
</svg>
