<svg width="400" height="400" viewBox="0 0 400 400" fill="none" xmlns="http://www.w3.org/2000/svg">
<path d="M161.885 199.429C161.885 199.429 190.925 244.93 299.792 237.676C299.792 237.676 314.346 239.037 322.93 259.757C322.93 259.757 344.262 305.024 274.466 332.167C274.488 332.188 68.7609 341.123 161.885 199.429Z" fill="url(#paint0_linear_1_186)"/>
<mask id="mask0_1_186" style="mask-type:alpha" maskUnits="userSpaceOnUse" x="137" y="199" width="189" height="134">
<path d="M161.885 199.429C161.885 199.429 190.925 244.93 299.792 237.676C299.792 237.676 314.346 239.037 322.93 259.757C322.93 259.757 344.262 305.024 274.466 332.167C274.488 332.188 68.7609 341.123 161.885 199.429Z" fill="url(#paint1_linear_1_186)"/>
</mask>
<g mask="url(#mask0_1_186)">
<g filter="url(#filter0_f_1_186)">
<path fill-rule="evenodd" clip-rule="evenodd" d="M160.835 253.014C174.943 325.446 282.344 333.763 282.344 333.763C200.247 366.353 142.754 317.469 142.754 317.469C142.754 317.469 105.346 290.581 90.1557 244.036C89.7999 244.537 89.4436 245.041 89.0865 245.548C86.7281 239.017 84.0298 229.87 82.6275 218.723C80.0992 198.387 83.3074 182.688 85.0709 174.456C87.1955 164.5 92.6347 140.271 111.629 115.893C111.629 115.893 128.754 93.8978 155.886 78.6031C163.046 74.5826 170.44 71.3918 170.44 71.3918C174.604 69.6049 178.088 68.3499 179.512 67.8606C179.512 67.8606 182.232 66.9033 184.824 66.095C193.407 63.436 205.029 61.6704 207.281 61.3513C207.281 61.3513 207.368 61.383 207.534 61.4463C300.45 53.9916 309.115 98.4075 309.115 98.4075C317.061 148.014 230.269 165.394 230.269 165.394C230.269 165.394 146.727 180.582 160.835 253.014Z" fill="black" fill-opacity="0.3"/>
</g>
</g>
<path fill-rule="evenodd" clip-rule="evenodd" d="M152.832 250.841C166.986 323.436 274.747 331.772 274.747 331.772C192.376 364.435 134.69 315.441 134.69 315.441C134.69 315.441 97.9684 289.075 82.4205 243.355C82.42 243.355 82.4194 243.356 82.4188 243.357C80.0526 236.812 77.3452 227.644 75.9383 216.472C73.4015 196.09 76.6204 180.356 78.3898 172.105C80.5215 162.127 85.9788 137.843 105.037 113.41C105.037 113.41 117.989 96.7921 139.219 82.3797C169.782 61.5628 199.283 58.8728 199.283 58.8728C292.888 51.2401 301.607 95.8848 301.607 95.8848C309.58 145.604 222.497 163.022 222.497 163.022C222.497 163.022 138.677 178.245 152.832 250.841Z" fill="url(#paint2_linear_1_186)"/>
<defs>
<filter id="filter0_f_1_186" x="77.6924" y="56.6029" width="235.937" height="292.363" filterUnits="userSpaceOnUse" color-interpolation-filters="sRGB">
<feFlood flood-opacity="0" result="BackgroundImageFix"/>
<feBlend mode="normal" in="SourceGraphic" in2="BackgroundImageFix" result="shape"/>
<feGaussianBlur stdDeviation="2" result="effect1_foregroundBlur_1_186"/>
</filter>
<linearGradient id="paint0_linear_1_186" x1="138.295" y1="265.866" x2="326.013" y2="265.866" gradientUnits="userSpaceOnUse">
<stop stop-color="#D14609"/>
<stop offset="0.989" stop-color="#FB7703"/>
</linearGradient>
<linearGradient id="paint1_linear_1_186" x1="138.295" y1="265.866" x2="326.013" y2="265.866" gradientUnits="userSpaceOnUse">
<stop stop-color="#D14609"/>
<stop offset="0.989" stop-color="#FB7703"/>
</linearGradient>
<linearGradient id="paint2_linear_1_186" x1="75.0003" y1="234.957" x2="217.624" y2="50.3789" gradientUnits="userSpaceOnUse">
<stop offset="0.163491" stop-color="#274351"/>
<stop offset="1" stop-color="#11252D"/>
</linearGradient>
</defs>
</svg>
